<?xml version="1.0" standalone="no"?>
<!DOCTYPE svg PUBLIC "-//W3C//DTD SVG 20010904//EN"
 "http://www.w3.org/TR/2001/REC-SVG-20010904/DTD/svg10.dtd">
<svg version="1.0" xmlns="http://www.w3.org/2000/svg"
 width="64.000000pt" height="64.000000pt" viewBox="0 0 64.000000 64.000000"
 preserveAspectRatio="xMidYMid meet">
<metadata>
Created by potrace 1.16, written by Peter Selinger 2001-2019
</metadata>
<g transform="translate(0.000000,64.000000) scale(0.100000,-0.100000)"
fill="#000000" stroke="none">
<path d="M254 591 c-57 -35 -113 -138 -85 -156 5 -3 20 -25 34 -49 l24 -43
-28 -17 c-28 -17 -29 -17 -40 8 -7 14 -25 30 -42 36 -17 5 -38 17 -48 26 -10
9 -28 14 -41 12 -38 -5 -36 -52 3 -101 24 -30 36 -59 46 -111 17 -88 35 -110
85 -103 35 5 37 4 40 -27 3 -28 7 -31 41 -34 28 -2 37 0 37 12 0 10 -9 16 -25
16 -24 0 -25 2 -25 65 0 51 -3 65 -15 65 -8 0 -15 -6 -15 -13 0 -21 -36 -49
-57 -45 -14 2 -21 19 -29 68 -7 36 -10 68 -7 72 11 19 31 5 37 -27 7 -37 36
-50 36 -15 0 11 13 34 28 51 l28 31 31 -31 c39 -39 66 -39 105 -1 l30 30 29
-29 c16 -16 29 -39 29 -50 0 -35 29 -24 36 14 6 32 26 46 37 28 10 -16 -16
-128 -31 -140 -13 -11 -20 -9 -39 9 -13 12 -23 27 -23 35 0 7 -7 13 -15 13
-12 0 -15 -14 -15 -65 0 -63 -1 -65 -25 -65 -16 0 -25 -6 -25 -16 0 -12 9 -14
38 -12 33 3 37 6 40 34 3 31 5 32 40 27 50 -7 68 15 85 103 10 52 22 81 46
111 39 49 41 96 3 101 -13 2 -31 -3 -41 -12 -10 -9 -31 -21 -48 -27 -19 -6
-36 -21 -43 -40 l-13 -30 -23 22 c-18 17 -21 25 -13 36 6 7 17 13 24 13 7 0
18 7 25 15 17 20 -5 136 -33 171 -41 53 -136 70 -193 35z m100 -153 c-7 -23
16 -35 30 -16 8 11 21 14 39 11 33 -6 46 -23 19 -23 -11 0 -27 -11 -35 -23
-20 -31 -69 -51 -103 -43 -32 8 -74 52 -74 78 0 10 -7 21 -15 24 -28 11 -17
34 18 34 17 0 38 4 46 9 19 12 81 -29 75 -51z"/>
</g>
</svg>
